<svg xmlns="http://www.w3.org/2000/svg" viewBox="0 0 1200 860" font-family="PingFang SC, Hiragino Sans GB, Microsoft YaHei, Noto Sans SC, system-ui, sans-serif">
  <defs>
    <linearGradient id="bg" x1="0" y1="0" x2="0" y2="1">
      <stop offset="0%" stop-color="#f8fafc"/>
      <stop offset="100%" stop-color="#f1f5f9"/>
    </linearGradient>
    <filter id="s" x="-1%" y="-8%" width="102%" height="120%">
      <feDropShadow dx="0" dy="1" stdDeviation="1.5" flood-opacity="0.07"/>
    </filter>
  </defs>

  <rect width="1200" height="860" fill="url(#bg)" rx="10"/>

  <!-- ==================== TITLE ==================== -->
  <text x="600" y="32" text-anchor="middle" font-size="18" font-weight="700" fill="#0f172a">Phase 1 &#x2014; &#x6838;&#x5FC3;&#x8FD0;&#x884C;&#x65F6; + &#x5DE5;&#x5177; + &#x4E0A;&#x4E0B;&#x6587;&#x7BA1;&#x7406; &#x2192; 90%</text>
  <text x="600" y="52" text-anchor="middle" font-size="11" fill="#64748b">&#x517C;&#x804C;&#x8282;&#x594F; &#xB7; 4 &#x4EBA;&#x5E76;&#x884C; &#xB7; &#x603B;&#x8BA1; 59 &#x4EBA;&#x5929; &#xB7; &#x5173;&#x952E;&#x8DEF;&#x5F84; 17 &#x4EBA;&#x5929; &#xB7; &#x7EA6; 9 &#x5468;</text>

  <!-- ==================== X-AXIS (person-days) ==================== -->
  <!-- xBase=350, dayW=40, max=18d, right=350+18*40=1070 -->
  <g font-size="10" fill="#94a3b8" text-anchor="middle">
    <text x="350" y="78">0d</text>
    <text x="430" y="78">2d</text>
    <text x="510" y="78">4d</text>
    <text x="590" y="78">6d</text>
    <text x="670" y="78">8d</text>
    <text x="750" y="78">10d</text>
    <text x="830" y="78">12d</text>
    <text x="910" y="78">14d</text>
    <text x="990" y="78">16d</text>
    <text x="1070" y="78">18d</text>
  </g>
  <text x="1110" y="78" font-size="9" fill="#cbd5e1">(&#x4EBA;&#x5929;)</text>

  <!-- Grid lines -->
  <g stroke="#e9ecef" stroke-width="0.5">
    <line x1="350" y1="84" x2="350" y2="730"/>
    <line x1="390" y1="84" x2="390" y2="730" stroke-dasharray="2,4"/>
    <line x1="430" y1="84" x2="430" y2="730"/>
    <line x1="470" y1="84" x2="470" y2="730" stroke-dasharray="2,4"/>
    <line x1="510" y1="84" x2="510" y2="730"/>
    <line x1="550" y1="84" x2="550" y2="730" stroke-dasharray="2,4"/>
    <line x1="590" y1="84" x2="590" y2="730"/>
    <line x1="630" y1="84" x2="630" y2="730" stroke-dasharray="2,4"/>
    <line x1="670" y1="84" x2="670" y2="730"/>
    <line x1="710" y1="84" x2="710" y2="730" stroke-dasharray="2,4"/>
    <line x1="750" y1="84" x2="750" y2="730"/>
    <line x1="790" y1="84" x2="790" y2="730" stroke-dasharray="2,4"/>
    <line x1="830" y1="84" x2="830" y2="730"/>
    <line x1="870" y1="84" x2="870" y2="730" stroke-dasharray="2,4"/>
    <line x1="910" y1="84" x2="910" y2="730"/>
    <line x1="950" y1="84" x2="950" y2="730" stroke-dasharray="2,4"/>
    <line x1="990" y1="84" x2="990" y2="730"/>
    <line x1="1030" y1="84" x2="1030" y2="730" stroke-dasharray="2,4"/>
    <line x1="1070" y1="84" x2="1070" y2="730"/>
  </g>

  <!-- ==================== LANE ?: CORE RUNTIME ==================== -->
  <!-- Header -->
  <rect x="12" y="94" width="1176" height="26" rx="5" fill="#3b82f6" opacity="0.08"/>
  <rect x="12" y="94" width="4" height="26" rx="2" fill="#3b82f6"/>
  <text x="24" y="112" font-size="12" font-weight="700" fill="#1e40af">&#x7532; &#xB7; &#x6838;&#x5FC3;&#x8FD0;&#x884C;&#x65F6; Query Runtime</text>
  <text x="1100" y="112" text-anchor="end" font-size="11" font-weight="600" fill="#3b82f6">= 17 &#x4EBA;&#x5929;</text>

  <!-- Row 1: day 0-4 -->
  <g transform="translate(0, 126)">
    <text x="24" y="16" font-size="9.5" font-weight="600" fill="#475569">1.3 + 1.7</text>
    <text x="84" y="16" font-size="9.5" fill="#475569">Compact &#x63A5;&#x5165;&#x4E3B;&#x5FAA;&#x73AF; + Token Budget</text>
    <rect x="350" y="2" width="160" height="22" rx="5" fill="#3b82f6" filter="url(#s)"/>
    <text x="430" y="17" text-anchor="middle" font-size="10" font-weight="600" fill="white">4d</text>
  </g>
  <!-- Row 2: day 4-7 -->
  <g transform="translate(0, 154)">
    <text x="24" y="16" font-size="9.5" font-weight="600" fill="#475569">1.10 + 1.11</text>
    <text x="96" y="16" font-size="9.5" fill="#475569">Ctrl+C &#x4E2D;&#x65AD;&#x6062;&#x590D; + Usage &#x5B8C;&#x5584;</text>
    <rect x="510" y="2" width="120" height="22" rx="5" fill="#3b82f6" filter="url(#s)" opacity="0.85"/>
    <text x="570" y="17" text-anchor="middle" font-size="10" font-weight="600" fill="white">3d</text>
  </g>
  <!-- Row 3: day 7-11 -->
  <g transform="translate(0, 182)">
    <text x="24" y="16" font-size="9.5" font-weight="600" fill="#475569">1.5 + 1.6</text>
    <text x="84" y="16" font-size="9.5" fill="#475569">ContextTooLong &#x6062;&#x590D; + MaxOutput &#x7EED;&#x5199;</text>
    <rect x="630" y="2" width="160" height="22" rx="5" fill="#3b82f6" filter="url(#s)"/>
    <text x="710" y="17" text-anchor="middle" font-size="10" font-weight="600" fill="white">4d</text>
  </g>
  <!-- Row 4: day 11-14 -->
  <g transform="translate(0, 210)">
    <text x="24" y="16" font-size="9.5" font-weight="600" fill="#475569">1.4</text>
    <text x="44" y="16" font-size="9.5" fill="#475569">Micro Compact (&#x5355;&#x6761; tool_result &#x538B;&#x7F29;)</text>
    <rect x="790" y="2" width="120" height="22" rx="5" fill="#3b82f6" filter="url(#s)" opacity="0.85"/>
    <text x="850" y="17" text-anchor="middle" font-size="10" font-weight="600" fill="white">3d</text>
  </g>
  <!-- Row 5: day 14-17 -->
  <g transform="translate(0, 238)">
    <text x="24" y="16" font-size="9.5" font-weight="600" fill="#475569">1.8 + 1.9</text>
    <text x="84" y="16" font-size="9.5" fill="#475569">Stop Hooks + Memory Prefetch</text>
    <rect x="910" y="2" width="120" height="22" rx="5" fill="#3b82f6" filter="url(#s)" opacity="0.7"/>
    <text x="970" y="17" text-anchor="middle" font-size="10" font-weight="600" fill="white">3d</text>
  </g>
  <!-- End marker -->
  <line x1="1030" y1="128" x2="1030" y2="262" stroke="#3b82f6" stroke-width="1.5" stroke-dasharray="4,3" opacity="0.4"/>
  <text x="1036" y="270" font-size="8" fill="#3b82f6">17d &#x25C0;</text>

  <!-- ==================== LANE ?: TOOLS A ==================== -->
  <rect x="12" y="282" width="1176" height="26" rx="5" fill="#10b981" opacity="0.08"/>
  <rect x="12" y="282" width="4" height="26" rx="2" fill="#10b981"/>
  <text x="24" y="300" font-size="12" font-weight="700" fill="#047857">&#x4E59; &#xB7; &#x5DE5;&#x5177;&#x5C42; A (&#x57FA;&#x7840; + Web)</text>
  <text x="1100" y="300" text-anchor="end" font-size="11" font-weight="600" fill="#10b981">= 12 &#x4EBA;&#x5929;</text>

  <!-- Row 1: day 0-4 -->
  <g transform="translate(0, 314)">
    <text x="24" y="16" font-size="9.5" font-weight="600" fill="#475569">2.2.1 + 2.2.2</text>
    <text x="106" y="16" font-size="9.5" fill="#475569">WebFetch + WebSearch</text>
    <rect x="222" y="3" width="28" height="16" rx="3" fill="#ef4444" opacity="0.12"/>
    <text x="236" y="15" text-anchor="middle" font-size="7.5" font-weight="700" fill="#dc2626">P0</text>
    <rect x="350" y="2" width="160" height="22" rx="5" fill="#10b981" filter="url(#s)"/>
    <text x="430" y="17" text-anchor="middle" font-size="10" font-weight="600" fill="white">4d</text>
  </g>
  <!-- Row 2: day 4-7 -->
  <g transform="translate(0, 342)">
    <text x="24" y="16" font-size="9.5" font-weight="600" fill="#475569">2.1.2 + 2.1.3</text>
    <text x="106" y="16" font-size="9.5" fill="#475569">Bash &#x540E;&#x53F0;&#x6267;&#x884C; + &#x8F93;&#x51FA;&#x622A;&#x65AD;</text>
    <rect x="510" y="2" width="120" height="22" rx="5" fill="#10b981" filter="url(#s)" opacity="0.85"/>
    <text x="570" y="17" text-anchor="middle" font-size="10" font-weight="600" fill="white">3d</text>
  </g>
  <!-- Row 3: day 7-10 -->
  <g transform="translate(0, 370)">
    <text x="24" y="16" font-size="9.5" font-weight="600" fill="#475569">2.1.4 &#x2013; 2.1.6</text>
    <text x="106" y="16" font-size="9.5" fill="#475569">File &#x6539;&#x8FDB; (replace_all / &#x8BCA;&#x65AD; / &#x5927;&#x6587;&#x4EF6;)</text>
    <rect x="630" y="2" width="120" height="22" rx="5" fill="#10b981" filter="url(#s)" opacity="0.85"/>
    <text x="690" y="17" text-anchor="middle" font-size="10" font-weight="600" fill="white">3d</text>
  </g>
  <!-- Row 4: day 10-12 -->
  <g transform="translate(0, 398)">
    <text x="24" y="16" font-size="9.5" font-weight="600" fill="#475569">2.1.7</text>
    <text x="56" y="16" font-size="9.5" fill="#475569">Grep &#x4E0A;&#x4E0B;&#x6587;&#x884C; (-A / -B / -C)</text>
    <rect x="750" y="2" width="80" height="22" rx="5" fill="#10b981" filter="url(#s)" opacity="0.7"/>
    <text x="790" y="17" text-anchor="middle" font-size="10" font-weight="600" fill="white">2d</text>
  </g>
  <!-- End marker -->
  <line x1="830" y1="316" x2="830" y2="422" stroke="#10b981" stroke-width="1.5" stroke-dasharray="4,3" opacity="0.4"/>
  <text x="836" y="430" font-size="8" fill="#10b981">12d &#x25C0;</text>

  <!-- ==================== LANE ?: TOOLS B ==================== -->
  <rect x="12" y="442" width="1176" height="26" rx="5" fill="#0891b2" opacity="0.08"/>
  <rect x="12" y="442" width="4" height="26" rx="2" fill="#0891b2"/>
  <text x="24" y="460" font-size="12" font-weight="700" fill="#0e7490">&#x4E19; &#xB7; &#x5DE5;&#x5177;&#x5C42; B (Agent + &#x6269;&#x5C55;)</text>
  <text x="1100" y="460" text-anchor="end" font-size="11" font-weight="600" fill="#0891b2">= 14 &#x4EBA;&#x5929;</text>

  <!-- Row 1: day 0-5 -->
  <g transform="translate(0, 474)">
    <text x="24" y="16" font-size="9.5" font-weight="600" fill="#475569">2.2.3</text>
    <text x="56" y="16" font-size="9.5" fill="#475569">AgentTool &#x5B50;Agent &#x59D4;&#x6258;</text>
    <rect x="178" y="3" width="28" height="16" rx="3" fill="#ef4444" opacity="0.12"/>
    <text x="192" y="15" text-anchor="middle" font-size="7.5" font-weight="700" fill="#dc2626">P0</text>
    <rect x="350" y="2" width="200" height="22" rx="5" fill="#0891b2" filter="url(#s)"/>
    <text x="450" y="17" text-anchor="middle" font-size="10" font-weight="600" fill="white">5d</text>
  </g>
  <!-- Row 2: day 5-8 -->
  <g transform="translate(0, 502)">
    <text x="24" y="16" font-size="9.5" font-weight="600" fill="#475569">2.2.4 + 2.2.5</text>
    <text x="106" y="16" font-size="9.5" fill="#475569">TodoWrite + NotebookEdit</text>
    <rect x="234" y="3" width="28" height="16" rx="3" fill="#f59e0b" opacity="0.12"/>
    <text x="248" y="15" text-anchor="middle" font-size="7.5" font-weight="700" fill="#d97706">P1</text>
    <rect x="550" y="2" width="120" height="22" rx="5" fill="#0891b2" filter="url(#s)" opacity="0.85"/>
    <text x="610" y="17" text-anchor="middle" font-size="10" font-weight="600" fill="white">3d</text>
  </g>
  <!-- Row 3: day 8-11 -->
  <g transform="translate(0, 530)">
    <text x="24" y="16" font-size="9.5" font-weight="600" fill="#475569">2.2.9 &#x2013; 2.2.12</text>
    <text x="116" y="16" font-size="9.5" fill="#475569">Task &#x7CFB;&#x5217; (Create/Get/List/Stop)</text>
    <rect x="280" y="3" width="28" height="16" rx="3" fill="#f59e0b" opacity="0.12"/>
    <text x="294" y="15" text-anchor="middle" font-size="7.5" font-weight="700" fill="#d97706">P1</text>
    <rect x="670" y="2" width="120" height="22" rx="5" fill="#0891b2" filter="url(#s)" opacity="0.85"/>
    <text x="730" y="17" text-anchor="middle" font-size="10" font-weight="600" fill="white">3d</text>
  </g>
  <!-- Row 4: day 11-14 -->
  <g transform="translate(0, 558)">
    <text x="24" y="16" font-size="9.5" font-weight="600" fill="#475569">2.2.6 &#x2013; 2.2.8</text>
    <text x="106" y="16" font-size="9.5" fill="#475569">MCP &#x7CFB;&#x5217; (Tool/ListRes/ReadRes)</text>
    <rect x="260" y="3" width="28" height="16" rx="3" fill="#f59e0b" opacity="0.12"/>
    <text x="274" y="15" text-anchor="middle" font-size="7.5" font-weight="700" fill="#d97706">P1</text>
    <rect x="790" y="2" width="120" height="22" rx="5" fill="#0891b2" filter="url(#s)" opacity="0.7"/>
    <text x="850" y="17" text-anchor="middle" font-size="10" font-weight="600" fill="white">3d</text>
  </g>
  <!-- End marker -->
  <line x1="910" y1="476" x2="910" y2="582" stroke="#0891b2" stroke-width="1.5" stroke-dasharray="4,3" opacity="0.4"/>
  <text x="916" y="590" font-size="8" fill="#0891b2">14d &#x25C0;</text>

  <!-- ==================== LANE ?: CONTEXT ==================== -->
  <rect x="12" y="602" width="1176" height="26" rx="5" fill="#f97316" opacity="0.08"/>
  <rect x="12" y="602" width="4" height="26" rx="2" fill="#f97316"/>
  <text x="24" y="620" font-size="12" font-weight="700" fill="#c2410c">&#x4E01; &#xB7; &#x4E0A;&#x4E0B;&#x6587;&#x538B;&#x7F29; Compact</text>
  <text x="1100" y="620" text-anchor="end" font-size="11" font-weight="600" fill="#f97316">= 16 &#x4EBA;&#x5929;</text>

  <!-- Row 1: day 0-4 -->
  <g transform="translate(0, 634)">
    <text x="24" y="16" font-size="9.5" font-weight="600" fill="#475569">4.1 + 4.3</text>
    <text x="84" y="16" font-size="9.5" fill="#475569">TruncateStrategy &#x63A5;&#x5165; + autoCompact &#x89E6;&#x53D1;</text>
    <rect x="350" y="2" width="160" height="22" rx="5" fill="#f97316" filter="url(#s)"/>
    <text x="430" y="17" text-anchor="middle" font-size="10" font-weight="600" fill="white">4d</text>
  </g>
  <!-- Row 2: day 4-9 -->
  <g transform="translate(0, 662)">
    <text x="24" y="16" font-size="9.5" font-weight="600" fill="#475569">4.2</text>
    <text x="44" y="16" font-size="9.5" fill="#475569">SummaryStrategy (&#x6A21;&#x578B;&#x6458;&#x8981;&#x538B;&#x7F29;)</text>
    <rect x="510" y="2" width="200" height="22" rx="5" fill="#f97316" filter="url(#s)"/>
    <text x="610" y="17" text-anchor="middle" font-size="10" font-weight="600" fill="white">5d</text>
  </g>
  <!-- Row 3: day 9-12 -->
  <g transform="translate(0, 690)">
    <text x="24" y="16" font-size="9.5" font-weight="600" fill="#475569">4.5</text>
    <text x="44" y="16" font-size="9.5" fill="#475569">reactiveCompact (API &#x62A5;&#x9519;&#x7D27;&#x6025;&#x538B;&#x7F29;)</text>
    <rect x="710" y="2" width="120" height="22" rx="5" fill="#f97316" filter="url(#s)" opacity="0.85"/>
    <text x="770" y="17" text-anchor="middle" font-size="10" font-weight="600" fill="white">3d</text>
  </g>
  <!-- Row 4: day 12-16 -->
  <g transform="translate(0, 718)">
    <text x="24" y="16" font-size="9.5" font-weight="600" fill="#475569">4.4 + 4.7</text>
    <text x="84" y="16" font-size="9.5" fill="#475569">microCompact + Context Collapse</text>
    <rect x="830" y="2" width="160" height="22" rx="5" fill="#f97316" filter="url(#s)" opacity="0.85"/>
    <text x="910" y="17" text-anchor="middle" font-size="10" font-weight="600" fill="white">4d</text>
  </g>
  <!-- End marker -->
  <line x1="990" y1="636" x2="990" y2="742" stroke="#f97316" stroke-width="1.5" stroke-dasharray="4,3" opacity="0.4"/>
  <text x="996" y="750" font-size="8" fill="#f97316">16d &#x25C0;</text>

  <!-- ==================== CRITICAL PATH MARKER ==================== -->
  <line x1="1030" y1="90" x2="1030" y2="750" stroke="#ef4444" stroke-width="1" stroke-dasharray="6,4" opacity="0.25"/>
  <rect x="1032" y="84" width="58" height="16" rx="3" fill="#fef2f2"/>
  <text x="1061" y="95" text-anchor="middle" font-size="8" font-weight="600" fill="#dc2626">&#x5173;&#x952E;&#x8DEF;&#x5F84;</text>

  <!-- ==================== SUMMARY ==================== -->
  <line x1="20" y1="770" x2="1180" y2="770" stroke="#e2e8f0" stroke-width="1"/>

  <!-- Summary cards -->
  <g transform="translate(30, 786)">
    <!-- Card 1: Total -->
    <rect x="0" y="0" width="200" height="50" rx="8" fill="white" filter="url(#s)"/>
    <text x="16" y="20" font-size="10" fill="#64748b">&#x603B;&#x5DE5;&#x4F5C;&#x91CF;</text>
    <text x="16" y="40" font-size="20" font-weight="700" fill="#0f172a">59</text>
    <text x="56" y="40" font-size="11" fill="#64748b">&#x4EBA;&#x5929;</text>

    <!-- Card 2: People -->
    <rect x="220" y="0" width="200" height="50" rx="8" fill="white" filter="url(#s)"/>
    <text x="236" y="20" font-size="10" fill="#64748b">&#x5E76;&#x884C;&#x4EBA;&#x6570;</text>
    <text x="236" y="40" font-size="20" font-weight="700" fill="#0f172a">4</text>
    <text x="256" y="40" font-size="11" fill="#64748b">&#x4EBA; (&#x517C;&#x804C;)</text>

    <!-- Card 3: Critical Path -->
    <rect x="440" y="0" width="200" height="50" rx="8" fill="white" filter="url(#s)"/>
    <text x="456" y="20" font-size="10" fill="#64748b">&#x5173;&#x952E;&#x8DEF;&#x5F84; (&#x7532;)</text>
    <text x="456" y="40" font-size="20" font-weight="700" fill="#dc2626">17</text>
    <text x="496" y="40" font-size="11" fill="#64748b">&#x4EBA;&#x5929;</text>

    <!-- Card 4: Calendar -->
    <rect x="660" y="0" width="240" height="50" rx="8" fill="white" filter="url(#s)"/>
    <text x="676" y="20" font-size="10" fill="#64748b">&#x9884;&#x4F30;&#x65E5;&#x5386;&#x5468;&#x671F; (2d/&#x5468;/&#x4EBA;)</text>
    <text x="676" y="40" font-size="20" font-weight="700" fill="#0f172a">&#x2248; 9</text>
    <text x="716" y="40" font-size="11" fill="#64748b">&#x5468;</text>

    <!-- Module breakdown -->
    <g transform="translate(920, 0)">
      <rect x="0" y="0" width="220" height="50" rx="8" fill="white" filter="url(#s)"/>
      <text x="16" y="14" font-size="8" fill="#64748b">&#x5404;&#x8DEF;&#x7EBF;&#x5DE5;&#x4F5C;&#x91CF;</text>

      <rect x="16" y="22" width="8" height="8" rx="2" fill="#3b82f6"/>
      <text x="28" y="30" font-size="8" fill="#475569">&#x7532; 17d</text>

      <rect x="68" y="22" width="8" height="8" rx="2" fill="#10b981"/>
      <text x="80" y="30" font-size="8" fill="#475569">&#x4E59; 12d</text>

      <rect x="120" y="22" width="8" height="8" rx="2" fill="#0891b2"/>
      <text x="132" y="30" font-size="8" fill="#475569">&#x4E19; 14d</text>

      <rect x="172" y="22" width="8" height="8" rx="2" fill="#f97316"/>
      <text x="184" y="30" font-size="8" fill="#475569">&#x4E01; 16d</text>

      <text x="16" y="44" font-size="8" fill="#94a3b8">&#x8DF3;&#x8FC7; P2: PowerShell / LSP / Skill</text>
    </g>
  </g>
</svg>
